<svg xmlns="http://www.w3.org/2000/svg" width="128" height="128" viewBox="0 0 128 128">
  <defs>
    <linearGradient id="lotusGradient" x1="0%" y1="0%" x2="100%" y2="100%">
      <stop offset="0%" style="stop-color:#C5A059"/>
      <stop offset="100%" style="stop-color:#3D3028"/>
    </linearGradient>
  </defs>
  <circle cx="64" cy="64" r="60" fill="#F7F3F0"/>
  <g transform="translate(64, 60)">
    <!-- Lotus petals -->
    <path d="M0,-35 C-15,-25 -25,-5 -25,15 C-25,30 -10,40 0,45 C10,40 25,30 25,15 C25,-5 15,-25 0,-35" fill="url(#lotusGradient)" opacity="0.9"/>
    <path d="M0,-35 C-15,-25 -25,-5 -25,15 C-25,30 -10,40 0,45 C10,40 25,30 25,15 C25,-5 15,-25 0,-35" fill="url(#lotusGradient)" opacity="0.9" transform="rotate(72)"/>
    <path d="M0,-35 C-15,-25 -25,-5 -25,15 C-25,30 -10,40 0,45 C10,40 25,30 25,15 C25,-5 15,-25 0,-35" fill="url(#lotusGradient)" opacity="0.9" transform="rotate(144)"/>
    <path d="M0,-35 C-15,-25 -25,-5 -25,15 C-25,30 -10,40 0,45 C10,40 25,30 25,15 C25,-5 15,-25 0,-35" fill="url(#lotusGradient)" opacity="0.9" transform="rotate(216)"/>
    <path d="M0,-35 C-15,-25 -25,-5 -25,15 C-25,30 -10,40 0,45 C10,40 25,30 25,15 C25,-5 15,-25 0,-35" fill="url(#lotusGradient)" opacity="0.9" transform="rotate(288)"/>
    <!-- Center -->
    <circle cx="0" cy="5" r="12" fill="#C5A059"/>
  </g>
</svg>
